<svg width="49" height="48" viewBox="0 0 49 48" fill="none" xmlns="http://www.w3.org/2000/svg">
<g id="clock-2">
<path id="Vector" d="M24.4746 44C35.5203 44 44.4746 35.0457 44.4746 24C44.4746 12.9543 35.5203 4 24.4746 4C13.4289 4 4.47461 12.9543 4.47461 24C4.47461 35.0457 13.4289 44 24.4746 44Z" stroke="#CAD2FF" stroke-width="4" stroke-linecap="round" stroke-linejoin="round"/>
<path id="Vector_2" d="M37.142 37.7141C36.8166 36.5381 36.1593 35.4532 35.2234 34.5797C33.8455 33.2937 31.9768 32.5713 30.0283 32.5713H19.0079C17.0594 32.5713 15.1906 33.2937 13.8128 34.5797C13.0003 35.3381 12.3977 36.2558 12.04 37.2542" stroke="#CAD2FF" stroke-width="4" stroke-linecap="round" stroke-linejoin="round"/>
<path id="Vector_3" d="M24.5182 25.7144C27.8319 25.7144 30.5182 23.0281 30.5182 19.7144C30.5182 16.4006 27.8319 13.7144 24.5182 13.7144C21.2045 13.7144 18.5182 16.4006 18.5182 19.7144C18.5182 23.0281 21.2045 25.7144 24.5182 25.7144Z" stroke="#CAD2FF" stroke-width="4" stroke-linecap="round" stroke-linejoin="round"/>
</g>
</svg>
