<svg width="36" height="36" viewBox="0 0 36 36" fill="none" xmlns="http://www.w3.org/2000/svg">
<path d="M31.8143 23.835C30.86 26.0917 29.3674 28.0803 27.4671 29.6269C25.5667 31.1736 23.3164 32.2311 20.9129 32.7072C18.5094 33.1832 16.0259 33.0632 13.6795 32.3577C11.3331 31.6522 9.1952 30.3826 7.45279 28.66C5.71038 26.9374 4.41648 24.8141 3.68421 22.4759C2.95195 20.1377 2.8036 17.6557 3.25216 15.2469C3.70071 12.8382 4.73251 10.5759 6.25733 8.65804C7.78216 6.74014 9.75359 5.22497 11.9993 4.245" stroke="#CFE5FF" stroke-width="3" stroke-linecap="round" stroke-linejoin="round"/>
<path d="M32.9993 18C32.9993 16.0302 32.6113 14.0796 31.8575 12.2597C31.1036 10.4399 29.9987 8.78628 28.6059 7.3934C27.213 6.00052 25.5594 4.89563 23.7395 4.14181C21.9196 3.38799 19.9691 3 17.9993 3V18H32.9993Z" stroke="#CFE5FF" stroke-width="3" stroke-linecap="round" stroke-linejoin="round"/>
</svg>
