<svg width="31" height="30" viewBox="0 0 31 30" fill="none" xmlns="http://www.w3.org/2000/svg">
<path d="M28.677 14.25C28.6822 16.2298 28.2196 18.1829 27.327 19.95C26.2687 22.0677 24.6416 23.8488 22.6282 25.094C20.6147 26.3391 18.2944 26.9991 15.927 27C13.9472 27.0052 11.9942 26.5426 10.227 25.65L1.677 28.5L4.527 19.95C3.6344 18.1829 3.17184 16.2298 3.177 14.25C3.17792 11.8827 3.83792 9.56232 5.08308 7.54887C6.32824 5.53542 8.10938 3.90839 10.227 2.85004C11.9942 1.95744 13.9472 1.49488 15.927 1.50004H16.677C19.8035 1.67253 22.7566 2.99218 24.9707 5.20633C27.1849 7.42048 28.5045 10.3735 28.677 13.5V14.25Z" stroke="#CFE5FF" stroke-width="3" stroke-linecap="round" stroke-linejoin="round"/>
</svg>
