<svg width="167" height="41" viewBox="0 0 167 41" fill="none" xmlns="http://www.w3.org/2000/svg">
<path d="M0 38.3027H163.17V36.7706H0V38.3027Z" fill="white"/>
<path fill-rule="evenodd" clip-rule="evenodd" d="M38.3028 38.3028H0V0H38.3028V38.3028ZM29.7745 28.0149C29.701 27.8188 29.6152 27.6595 29.5171 27.5369L22.8616 19.9989C22.641 19.7048 22.641 19.4229 22.8616 19.1532L29.5171 11.6152C29.6152 11.4927 29.701 11.3456 29.7745 11.174C29.848 10.9779 29.8848 10.8063 29.8848 10.6592V6.09963H24.7001V8.71034C24.7001 8.85742 24.6634 9.02902 24.5898 9.22513C24.5408 9.39673 24.4673 9.54381 24.3692 9.66638L19.4419 15.2555C19.3194 15.3781 19.1846 15.4394 19.0375 15.4394C18.9149 15.4394 18.8046 15.3781 18.7065 15.2555L13.7793 9.66638C13.6812 9.54381 13.5954 9.39673 13.5219 9.22513C13.4483 9.02902 13.4116 8.85742 13.4116 8.71034V6.09963H8.26367V10.6592C8.26367 10.8063 8.28819 10.9779 8.33721 11.174C8.41075 11.3456 8.50881 11.4927 8.63138 11.6152L15.2869 19.1532C15.5075 19.4229 15.5075 19.7048 15.2869 19.9989L8.63138 27.5369C8.50881 27.6595 8.41075 27.8188 8.33721 28.0149C8.28819 28.1865 8.26367 28.3459 8.26367 28.4929V32.979H13.4116V30.4418C13.4116 30.2947 13.4483 30.1354 13.5219 29.9638C13.5954 29.7677 13.6812 29.6083 13.7793 29.4858L18.7065 23.8966C18.8046 23.774 18.9149 23.7128 19.0375 23.7128C19.1846 23.7128 19.3194 23.774 19.4419 23.8966L24.3692 29.4858C24.4673 29.6083 24.5408 29.7677 24.5898 29.9638C24.6634 30.1354 24.7001 30.2947 24.7001 30.4418V32.979H29.8848V28.4929C29.8848 28.3459 29.848 28.1865 29.7745 28.0149Z" fill="white"/>
<path d="M49.4105 29.5967V15.8077H45.9633V33.0439H56.305V29.5967H49.4105ZM73.5412 15.8077H59.7522V33.0439H73.5412V15.8077ZM70.094 29.5967H63.1995V19.255H70.094V29.5967ZM76.9885 15.8077V33.0439H80.4357V19.255H83.883V33.0439H87.3302V19.255H90.7775V33.0439H94.2247V15.8077H76.9885ZM97.672 15.8077V33.0439H111.461V26.1494H108.014V22.7022H111.461V15.8077H97.672ZM107.876 19.255V22.7022H101.119V19.255H107.876ZM107.876 26.1494V29.5967H101.119V26.1494H107.876ZM114.908 15.8077V33.0439H118.355V26.1494H125.25V33.0439H128.697V15.8077H114.908ZM125.25 22.7022H118.355V19.255H125.25V22.7022ZM145.933 33.0439V26.1494H142.486V22.7022H145.933V15.8077H132.144V33.0439H135.592V26.1494H142.486V33.0439H145.933ZM142.348 22.7022H135.592V19.255H142.348V22.7022ZM159.722 19.255V15.8077H149.381V33.0439H159.722V29.5967H163.17V19.255H159.722ZM159.585 19.255V29.5967H152.828V19.255H159.585Z" fill="white"/>
</svg>
