<svg width="218" height="55" viewBox="0 0 218 55" fill="none" xmlns="http://www.w3.org/2000/svg">
<path d="M0 50H213V48H0V50Z" fill="#0862EE"/>
<path d="M0 50H50V0H0V50Z" fill="#0862EE"/>
<path d="M38.7128 35.396C38.8408 35.556 38.9528 35.764 39.0488 36.02C39.1448 36.244 39.1927 36.452 39.1927 36.644V42.5H32.4248V39.188C32.4248 38.996 32.3768 38.788 32.2808 38.564C32.2168 38.308 32.1208 38.1 31.9928 37.94L25.5608 30.644C25.4008 30.484 25.2248 30.404 25.0328 30.404C24.8728 30.404 24.7288 30.484 24.6008 30.644L18.1688 37.94C18.0408 38.1 17.9288 38.308 17.8328 38.564C17.7368 38.788 17.6888 38.996 17.6888 39.188V42.5H10.9688V36.644C10.9688 36.452 11.0008 36.244 11.0648 36.02C11.1608 35.764 11.2888 35.556 11.4488 35.396L20.1368 25.556C20.4248 25.172 20.4248 24.804 20.1368 24.452L11.4488 14.612C11.2888 14.452 11.1608 14.26 11.0648 14.036C11.0008 13.78 10.9688 13.556 10.9688 13.364V7.412H17.6888V10.82C17.6888 11.012 17.7368 11.236 17.8328 11.492C17.9288 11.716 18.0408 11.908 18.1688 12.068L24.6008 19.364C24.7288 19.524 24.8728 19.604 25.0328 19.604C25.2248 19.604 25.4008 19.524 25.5608 19.364L31.9928 12.068C32.1208 11.908 32.2168 11.716 32.2808 11.492C32.3768 11.236 32.4248 11.012 32.4248 10.82V7.412H39.1927V13.364C39.1927 13.556 39.1448 13.78 39.0488 14.036C38.9528 14.26 38.8408 14.452 38.7128 14.612L30.0248 24.452C29.7368 24.804 29.7368 25.172 30.0248 25.556L38.7128 35.396Z" fill="white"/>
<path d="M64.5 38V20H60V42.5H73.5V38H64.5ZM96 20H78V42.5H96V20ZM91.5 38H82.5V24.5H91.5V38ZM100.5 20V42.5H105V24.5H109.5V42.5H114V24.5H118.5V42.5H123V20H100.5ZM127.5 20V42.5H145.5V33.5H141V29H145.5V20H127.5ZM140.82 24.5V29H132V24.5H140.82ZM140.82 33.5V38H132V33.5H140.82ZM150 20V42.5H154.5V33.5H163.5V42.5H168V20H150ZM163.5 29H154.5V24.5H163.5V29ZM190.5 42.5V33.5H186V29H190.5V20H172.5V42.5H177V33.5H186V42.5H190.5ZM185.82 29H177V24.5H185.82V29ZM208.5 24.5V20H195V42.5H208.5V38H213V24.5H208.5ZM208.32 24.5V38H199.5V24.5H208.32Z" fill="#202020"/>
</svg>
