<svg width="305" height="83" viewBox="0 0 305 83" fill="none" xmlns="http://www.w3.org/2000/svg">
<rect y="-0.000976562" width="305" height="82.9027" rx="16" fill="#F0F2FE"/>
<path d="M60.25 52.999H64.75V43.999H73.75V39.499H64.75V30.499H60.25V52.999ZM78.25 52.999V43.999H73.75V52.999H78.25ZM78.25 30.499H73.75V39.499H78.25V30.499ZM100.75 30.499H82.75V52.999H100.75V30.499ZM96.25 48.499H87.25V34.999H96.25V48.499ZM123.25 30.499V52.999H127.75V30.499H123.25ZM109.75 30.499H105.25V52.999H109.75V30.499ZM118.75 52.999V39.499H114.25V52.999H118.75ZM123.25 34.999H118.75V39.499H123.25V34.999ZM109.75 39.499H114.25V34.999H109.75V39.499ZM132.25 30.499V52.999H136.75V34.999H145.75V52.999H150.25V30.499H132.25ZM154.75 30.499V52.999H159.25V43.999H168.25V52.999H172.75V30.499H154.75ZM168.25 39.499H159.25V34.999H168.25V39.499ZM190.75 30.499V39.499H181.75V30.499H177.25V52.999H181.75V43.999H190.75V52.999H195.25V30.499H190.75ZM213.25 30.499V48.499H204.25V30.499H199.75V48.499H204.25V52.999H217.75V30.499H213.25ZM222.25 52.999H226.93V43.999H235.75V52.999H240.25V30.499H222.25V39.499H226.75V43.999H222.25V52.999ZM226.93 34.999H235.75V39.499H226.93V34.999Z" fill="#9DA7E0"/>
</svg>
