<svg width="25" height="24" viewBox="0 0 25 24" fill="none" xmlns="http://www.w3.org/2000/svg">
<g id="clock-2">
<path id="Vector" d="M12.4746 22C17.9975 22 22.4746 17.5228 22.4746 12C22.4746 6.47715 17.9975 2 12.4746 2C6.95176 2 2.47461 6.47715 2.47461 12C2.47461 17.5228 6.95176 22 12.4746 22Z" stroke="#9DA7E0" stroke-width="2" stroke-linecap="round" stroke-linejoin="round"/>
<path id="Vector_2" d="M18.8083 18.8571C18.6456 18.269 18.3169 17.7266 17.849 17.2899C17.1601 16.6469 16.2257 16.2856 15.2515 16.2856H9.74125C8.76698 16.2856 7.83262 16.6469 7.14371 17.2899C6.73744 17.669 6.43615 18.1279 6.25732 18.6271" stroke="#9DA7E0" stroke-width="2" stroke-linecap="round" stroke-linejoin="round"/>
<path id="Vector_3" d="M12.4964 12.8569C14.1533 12.8569 15.4964 11.5138 15.4964 9.85693C15.4964 8.20008 14.1533 6.85693 12.4964 6.85693C10.8395 6.85693 9.4964 8.20008 9.4964 9.85693C9.4964 11.5138 10.8395 12.8569 12.4964 12.8569Z" stroke="#9DA7E0" stroke-width="2" stroke-linecap="round" stroke-linejoin="round"/>
</g>
</svg>
