<svg width="48" height="48" viewBox="0 0 48 48" fill="none" xmlns="http://www.w3.org/2000/svg">
<path d="M44 33.8402V39.8402C44.0022 40.3972 43.8882 40.9485 43.665 41.4589C43.4419 41.9692 43.1146 42.4274 42.7041 42.8039C42.2937 43.1805 41.8091 43.4672 41.2815 43.6456C40.7538 43.8241 40.1947 43.8903 39.64 43.8402C33.4857 43.1715 27.574 41.0685 22.38 37.7002C17.5476 34.6295 13.4507 30.5325 10.38 25.7002C6.99994 20.4826 4.89647 14.5422 4.23999 8.36019C4.19001 7.80713 4.25574 7.24971 4.43299 6.72344C4.61024 6.19717 4.89513 5.71357 5.26952 5.30344C5.64391 4.8933 6.0996 4.56561 6.60757 4.34124C7.11554 4.11686 7.66467 4.00072 8.21999 4.00019H14.22C15.1906 3.99064 16.1316 4.33435 16.8675 4.96726C17.6035 5.60017 18.0841 6.47909 18.22 7.44019C18.4732 9.36033 18.9429 11.2456 19.62 13.0602C19.8891 13.776 19.9473 14.554 19.7878 15.302C19.6283 16.0499 19.2577 16.7364 18.72 17.2802L16.18 19.8202C19.0271 24.8273 23.1729 28.9731 28.18 31.8202L30.72 29.2802C31.2638 28.7425 31.9503 28.3719 32.6982 28.2124C33.4462 28.0529 34.2241 28.1111 34.94 28.3802C36.7545 29.0573 38.6399 29.527 40.56 29.7802C41.5315 29.9173 42.4188 30.4066 43.0531 31.1552C43.6873 31.9038 44.0243 32.8593 44 33.8402Z" stroke="#0862EE" stroke-width="3" stroke-linecap="round" stroke-linejoin="round"/>
<path d="M28.1 4C32.1765 4.42954 35.9843 6.2376 38.8937 9.12516C41.8031 12.0127 43.6398 15.8068 44.1 19.88" stroke="#0862EE" stroke-width="3" stroke-linecap="round" stroke-linejoin="round"/>
<path d="M28.1 12C30.067 12.3879 31.872 13.3581 33.2808 14.7846C34.6895 16.2112 35.6369 18.0283 36 20" stroke="#0862EE" stroke-width="3" stroke-linecap="round" stroke-linejoin="round"/>
</svg>
