<svg width="48" height="48" viewBox="0 0 48 48" fill="none" xmlns="http://www.w3.org/2000/svg">
<path d="M40 20C40 32 24 44 24 44C24 44 8 32 8 20C8 15.7565 9.68571 11.6869 12.6863 8.68629C15.6869 5.68571 19.7565 4 24 4C28.2435 4 32.3131 5.68571 35.3137 8.68629C38.3143 11.6869 40 15.7565 40 20V20Z" stroke="#0862EE" stroke-width="3" stroke-linecap="round" stroke-linejoin="round"/>
<path d="M24 26C27.3137 26 30 23.3137 30 20C30 16.6863 27.3137 14 24 14C20.6863 14 18 16.6863 18 20C18 23.3137 20.6863 26 24 26Z" stroke="#0862EE" stroke-width="3" stroke-linecap="round" stroke-linejoin="round"/>
</svg>
