<svg width="107" height="115" viewBox="0 0 107 115" fill="none" xmlns="http://www.w3.org/2000/svg">
<g id="Group 21">
<path id="Vector" fill-rule="evenodd" clip-rule="evenodd" d="M49.0805 7.0115H33.3046C30.3999 7.0115 28.046 9.36536 28.046 12.2701V41.046H5.25863C2.35386 41.046 0 43.3999 0 46.3046V109.408C0 112.313 2.35386 114.667 5.25863 114.667H87.3844V111.161H52.2858C52.4806 110.612 52.5855 110.023 52.5855 109.408V107.655H96.8499C97.5933 107.655 98.3062 107.359 98.8321 106.833C99.3579 106.307 99.6545 105.594 99.6545 104.851V16.8276C99.6545 16.0842 99.3579 15.3713 98.8321 14.8455C98.3062 14.3196 97.5933 14.023 96.8499 14.023H85.3318C85.5267 13.4744 85.6315 12.8852 85.6315 12.2701V10.5173H101.407C102.375 10.5173 103.16 11.3029 103.16 12.2701V109.408C103.16 110.375 102.375 111.161 101.407 111.161H87.3844V114.667H101.407C104.312 114.667 106.666 112.313 106.666 109.408V12.2701C106.666 9.36536 104.312 7.0115 101.407 7.0115H85.6315V5.25863C85.6315 2.35386 83.2776 0 80.3729 0H54.3384C51.4336 0 49.0798 2.35386 49.0798 5.25863L49.0805 7.0115ZM5.25863 44.5518H47.3276C48.2948 44.5518 49.0805 45.3374 49.0805 46.3046V109.408C49.0805 110.375 48.2948 111.161 47.3276 111.161H5.25863C4.29142 111.161 3.50575 110.375 3.50575 109.408V46.3046C3.50575 45.3374 4.29142 44.5518 5.25863 44.5518ZM38.5633 41.046H47.3276C50.2324 41.046 52.5863 43.3999 52.5863 46.3046V104.15H96.1495V17.5288H38.5633V41.046ZM49.0805 10.5173H33.3046C32.3374 10.5173 31.5518 11.3029 31.5518 12.2701V41.046H35.0575V16.8276C35.0575 16.0842 35.3541 15.3713 35.88 14.8455C36.4058 14.3196 37.1187 14.023 37.8621 14.023H49.3802C49.1854 13.4744 49.0805 12.8852 49.0805 12.2701L49.0805 10.5173ZM82.1265 5.25863V12.2701C82.1265 13.2373 81.3409 14.023 80.3736 14.023H54.3391C53.3719 14.023 52.5863 13.2373 52.5863 12.2701V5.25863C52.5863 4.29142 53.3719 3.50575 54.3391 3.50575H80.3736C81.3409 3.50575 82.1265 4.29142 82.1265 5.25863Z" fill="#0862EE"/>
<path id="Vector_2" fill-rule="evenodd" clip-rule="evenodd" d="M45.5747 51.9139C45.5747 50.8919 45.1678 49.9106 44.4455 49.1868C43.7216 48.4645 42.7404 48.0576 41.7184 48.0576H10.8678C9.84581 48.0576 8.86452 48.4645 8.14073 49.1868C7.41844 49.9107 7.01154 50.8919 7.01154 51.9139V61.73C7.01154 62.752 7.41844 63.7333 8.14073 64.4571C8.86458 65.1793 9.84587 65.5863 10.8678 65.5863H41.7184C42.7404 65.5863 43.7217 65.1793 44.4455 64.4571C45.1678 63.7332 45.5747 62.7519 45.5747 61.73V51.9139ZM42.0689 51.9139V61.73C42.0689 61.8231 42.0322 61.9123 41.9656 61.9773C41.9007 62.0438 41.8115 62.0806 41.7183 62.0806H10.8677C10.7746 62.0806 10.6854 62.0438 10.6205 61.9773C10.5539 61.9123 10.5172 61.8231 10.5172 61.73V51.9139C10.5172 51.8208 10.5539 51.7315 10.6205 51.6666C10.6854 51.6001 10.7746 51.5633 10.8677 51.5633H41.7183C41.8115 51.5633 41.9007 51.6001 41.9656 51.6666C42.0322 51.7315 42.0689 51.8208 42.0689 51.9139Z" fill="#0862EE"/>
<path id="Vector_3" fill-rule="evenodd" clip-rule="evenodd" d="M17.5287 76.8047V71.8966C17.5287 70.3472 16.2735 69.092 14.7241 69.092H9.81601C8.26659 69.092 7.01141 70.3472 7.01141 71.8966V76.8047C7.01141 78.3541 8.26659 79.6093 9.81601 79.6093H14.7241C16.2735 79.6093 17.5287 78.3541 17.5287 76.8047ZM10.5172 76.1035H14.0229V72.5978H10.5172V76.1035Z" fill="#0862EE"/>
<path id="Vector_4" fill-rule="evenodd" clip-rule="evenodd" d="M17.5287 90.8276V85.9196C17.5287 84.3702 16.2735 83.115 14.7241 83.115H9.81601C8.26659 83.115 7.01141 84.3702 7.01141 85.9196V90.8276C7.01141 92.3771 8.26659 93.6322 9.81601 93.6322H14.7241C16.2735 93.6322 17.5287 92.3771 17.5287 90.8276ZM10.5172 90.1265H14.0229V86.6207H10.5172V90.1265Z" fill="#0862EE"/>
<path id="Vector_5" fill-rule="evenodd" clip-rule="evenodd" d="M17.5287 104.851V99.9425C17.5287 98.3931 16.2735 97.1379 14.7241 97.1379H9.81601C8.26659 97.1379 7.01141 98.3931 7.01141 99.9425V104.851C7.01141 106.4 8.26659 107.655 9.81601 107.655H14.7241C16.2735 107.655 17.5287 106.4 17.5287 104.851ZM10.5172 104.149H14.0229V100.644H10.5172V104.149Z" fill="#0862EE"/>
<path id="Vector_6" fill-rule="evenodd" clip-rule="evenodd" d="M31.5518 76.8047V71.8966C31.5518 70.3472 30.2966 69.092 28.7472 69.092H23.8391C22.2897 69.092 21.0345 70.3472 21.0345 71.8966V76.8047C21.0345 78.3541 22.2897 79.6093 23.8391 79.6093H28.7472C30.2966 79.6093 31.5518 78.3541 31.5518 76.8047ZM24.5403 76.1035H28.046V72.5978H24.5403V76.1035Z" fill="#0862EE"/>
<path id="Vector_7" fill-rule="evenodd" clip-rule="evenodd" d="M31.5518 90.8276V85.9196C31.5518 84.3702 30.2966 83.115 28.7472 83.115H23.8391C22.2897 83.115 21.0345 84.3702 21.0345 85.9196V90.8276C21.0345 92.3771 22.2897 93.6322 23.8391 93.6322H28.7472C30.2966 93.6322 31.5518 92.3771 31.5518 90.8276ZM24.5403 90.1265H28.046V86.6207H24.5403V90.1265Z" fill="#0862EE"/>
<path id="Vector_8" fill-rule="evenodd" clip-rule="evenodd" d="M31.5518 104.851V99.9425C31.5518 98.3931 30.2966 97.1379 28.7472 97.1379H23.8391C22.2897 97.1379 21.0345 98.3931 21.0345 99.9425V104.851C21.0345 106.4 22.2897 107.655 23.8391 107.655H28.7472C30.2966 107.655 31.5518 106.4 31.5518 104.851ZM24.5403 104.149H28.046V100.644H24.5403V104.149Z" fill="#0862EE"/>
<path id="Vector_9" fill-rule="evenodd" clip-rule="evenodd" d="M45.5747 90.8276V85.9196C45.5747 84.3702 44.3195 83.115 42.7701 83.115H37.8621C36.3126 83.115 35.0575 84.3702 35.0575 85.9196V90.8276C35.0575 92.3771 36.3126 93.6322 37.8621 93.6322H42.7701C44.3195 93.6322 45.5747 92.3771 45.5747 90.8276ZM38.5632 90.1265H42.069V86.6207H38.5632V90.1265Z" fill="#0862EE"/>
<path id="Vector_10" fill-rule="evenodd" clip-rule="evenodd" d="M45.5747 104.851V99.9425C45.5747 98.3931 44.3195 97.1379 42.7701 97.1379H37.8621C36.3126 97.1379 35.0575 98.3931 35.0575 99.9425V104.851C35.0575 106.4 36.3126 107.655 37.8621 107.655H42.7701C44.3195 107.655 45.5747 106.4 45.5747 104.851ZM38.5632 104.149H42.069V100.644H38.5632V104.149Z" fill="#0862EE"/>
<path id="Vector_11" fill-rule="evenodd" clip-rule="evenodd" d="M61.3505 65.5287H82.385C83.3522 65.5287 84.1379 64.743 84.1379 63.7758C84.1379 62.8086 83.3522 62.0229 82.385 62.0229H61.3505C60.3833 62.0229 59.5977 62.8086 59.5977 63.7758C59.5977 64.743 60.3833 65.5287 61.3505 65.5287Z" fill="#0862EE"/>
<path id="Vector_12" fill-rule="evenodd" clip-rule="evenodd" d="M61.3505 86.5058H82.385C83.3522 86.5058 84.1379 85.7201 84.1379 84.7529C84.1379 83.7857 83.3522 83 82.385 83H61.3505C60.3833 83 59.5977 83.7857 59.5977 84.7529C59.5977 85.7201 60.3833 86.5058 61.3505 86.5058Z" fill="#0862EE"/>
<path id="Vector_13" fill-rule="evenodd" clip-rule="evenodd" d="M61.3505 72.5058H82.385C83.3522 72.5058 84.1379 71.7201 84.1379 70.7529C84.1379 69.7857 83.3522 69 82.385 69H61.3505C60.3833 69 59.5977 69.7857 59.5977 70.7529C59.5977 71.7201 60.3833 72.5058 61.3505 72.5058Z" fill="#0862EE"/>
<path id="Vector_14" fill-rule="evenodd" clip-rule="evenodd" d="M61.3505 93.4828H82.385C83.3522 93.4828 84.1379 92.6971 84.1379 91.7299C84.1379 90.7627 83.3522 89.9771 82.385 89.9771H61.3505C60.3833 89.9771 59.5977 90.7627 59.5977 91.7299C59.5977 92.6971 60.3833 93.4828 61.3505 93.4828Z" fill="#0862EE"/>
<path id="Vector_15" fill-rule="evenodd" clip-rule="evenodd" d="M61.3505 58.5746H82.385C83.3522 58.5746 84.1379 57.7889 84.1379 56.8217C84.1379 55.8545 83.3522 55.0688 82.385 55.0688H61.3505C60.3833 55.0688 59.5977 55.8545 59.5977 56.8217C59.5977 57.7889 60.3833 58.5746 61.3505 58.5746Z" fill="#0862EE"/>
<path id="Vector_16" fill-rule="evenodd" clip-rule="evenodd" d="M61.3505 51.5058H71.8678C72.835 51.5058 73.6207 50.7201 73.6207 49.7529C73.6207 48.7857 72.835 48 71.8678 48H61.3505C60.3833 48 59.5977 48.7857 59.5977 49.7529C59.5977 50.7201 60.3833 51.5058 61.3505 51.5058Z" fill="#0862EE"/>
<path id="Vector_17" fill-rule="evenodd" clip-rule="evenodd" d="M61.3505 79.5058H71.8678C72.835 79.5058 73.6207 78.7201 73.6207 77.7529C73.6207 76.7857 72.835 76 71.8678 76H61.3505C60.3833 76 59.5977 76.7857 59.5977 77.7529C59.5977 78.7201 60.3833 79.5058 61.3505 79.5058Z" fill="#0862EE"/>
<path id="Vector 6" d="M51 37.5341V24.5508H59V37.5341" stroke="#0862EE" stroke-width="4" stroke-linecap="round" stroke-linejoin="round"/>
<path id="Vector 6_2" d="M64 24.5508H69.5M69.5 24.5508V37.5341M69.5 24.5508H75" stroke="#0862EE" stroke-width="4" stroke-linecap="round" stroke-linejoin="round"/>
<path id="Vector 7" d="M86 28.07C86 23.478 79.0001 23.4357 79 27.6161C78.9999 30.6352 79.0014 32.0649 79.0009 34.2606C79 38.582 86 38.5947 86 34.4777" stroke="#0862EE" stroke-width="4" stroke-linecap="round" stroke-linejoin="round"/>
</g>
</svg>
