<svg width="48" height="48" viewBox="0 0 48 48" fill="none" xmlns="http://www.w3.org/2000/svg">
<g id="puzzle">
<path id="Vector" d="M38.878 15.7001C38.78 16.3441 38.996 16.9961 39.456 17.4561L42.592 20.5921C43.532 21.5321 44.004 22.7661 44.004 24.0001C44.004 25.2341 43.534 26.4661 42.592 27.4081L39.37 30.6301C39.1535 30.8464 38.8893 31.009 38.5986 31.1049C38.3079 31.2008 37.9988 31.2272 37.696 31.1821C36.756 31.0421 36.092 30.2221 35.76 29.3321C35.4687 28.5457 34.9843 27.8451 34.3515 27.2948C33.7186 26.7446 32.9575 26.3622 32.1382 26.1831C31.3189 26.0039 30.4677 26.0335 29.6629 26.2694C28.8581 26.5052 28.1255 26.9396 27.5325 27.5326C26.9395 28.1256 26.5051 28.8582 26.2693 29.663C26.0335 30.4678 26.0038 31.319 26.183 32.1383C26.3622 32.9576 26.7445 33.7187 27.2947 34.3515C27.845 34.9844 28.5456 35.4688 29.332 35.7601C30.224 36.0921 31.042 36.7541 31.182 37.6961C31.2273 37.9989 31.2009 38.308 31.105 38.5987C31.0092 38.8895 30.8465 39.1536 30.63 39.3701L27.41 42.5901C26.9628 43.0388 26.4313 43.3947 25.8461 43.6374C25.2609 43.8801 24.6335 44.0047 24 44.0041C23.3669 44.0049 22.7399 43.8806 22.1551 43.6383C21.5702 43.3959 21.039 43.0404 20.592 42.5921L17.456 39.4561C17.2293 39.229 16.9526 39.0583 16.648 38.9575C16.3434 38.8568 16.0194 38.8289 15.702 38.8761C14.716 39.0241 14.022 39.8841 13.662 40.8121C13.3603 41.5866 12.8702 42.2737 12.2361 42.8112C11.602 43.3486 10.8439 43.7195 10.0305 43.8903C9.21697 44.0611 8.37374 44.0264 7.57704 43.7893C6.78035 43.5523 6.05532 43.1203 5.46756 42.5325C4.8798 41.9448 4.44784 41.2198 4.21077 40.4231C3.9737 39.6264 3.93899 38.7831 4.10978 37.9696C4.28057 37.1562 4.65148 36.3981 5.18895 35.764C5.72642 35.1299 6.41349 34.6398 7.18801 34.3381C8.11601 33.9781 8.97601 33.2841 9.12201 32.2981C9.16944 31.9809 9.14186 31.657 9.04148 31.3524C8.9411 31.0478 8.77072 30.771 8.54401 30.5441L5.40801 27.4081C4.9597 26.9611 4.60417 26.4299 4.36185 25.845C4.11953 25.2602 3.9952 24.6332 3.99601 24.0001C3.99601 22.7661 4.46801 21.5321 5.40801 20.5921L8.46001 17.5401C8.94001 17.0601 9.62201 16.8341 10.294 16.9341C11.324 17.0881 12.048 17.9901 12.44 18.9541C12.7514 19.7176 13.2468 20.3922 13.882 20.9179C14.5173 21.4436 15.2727 21.804 16.081 21.9671C16.8892 22.1302 17.7253 22.0908 18.5147 21.8525C19.304 21.6142 20.0222 21.1844 20.6053 20.6014C21.1883 20.0183 21.6181 19.3001 21.8564 18.5107C22.0947 17.7214 22.1341 16.8853 21.971 16.077C21.8079 15.2688 21.4475 14.5134 20.9218 13.8781C20.3961 13.2429 19.7215 12.7475 18.958 12.4361C17.994 12.0441 17.092 11.3201 16.938 10.2901C16.838 9.6181 17.062 8.9381 17.544 8.4561L20.594 5.4061C21.0409 4.95839 21.5719 4.60337 22.1564 4.3614C22.7409 4.11944 23.3674 3.99529 24 3.9961C25.234 3.9961 26.468 4.4681 27.408 5.4081L30.544 8.5441C31.004 9.0041 31.656 9.2201 32.298 9.1241C33.284 8.9761 33.978 8.1161 34.338 7.1881C34.6398 6.41358 35.1298 5.72651 35.7639 5.18904C36.398 4.65157 37.1561 4.28067 37.9696 4.10987C38.783 3.93908 39.6263 3.97379 40.423 4.21086C41.2197 4.44793 41.9447 4.87989 42.5325 5.46765C43.1202 6.05542 43.5522 6.78044 43.7892 7.57714C44.0263 8.37383 44.061 9.21706 43.8902 10.0306C43.7194 10.844 43.3485 11.6021 42.8111 12.2362C42.2736 12.8703 41.5865 13.3603 40.812 13.6621C39.884 14.0221 39.024 14.7161 38.878 15.7021V15.7001Z" stroke="#CAD2FF" stroke-width="4" stroke-linecap="round" stroke-linejoin="round"/>
</g>
</svg>
