<svg width="24" height="24" viewBox="0 0 24 24" fill="none" xmlns="http://www.w3.org/2000/svg">
<g id="Group">
<path id="Vector" d="M12 2C17.523 2 22 6.477 22 12C22 17.523 17.523 22 12 22C10.298 22.0025 8.62369 21.5687 7.13701 20.74L6.83201 20.562L3.80001 21.454C3.63501 21.5026 3.46033 21.5083 3.29252 21.4705C3.12472 21.4327 2.96935 21.3526 2.84115 21.238C2.71294 21.1233 2.61615 20.9778 2.55995 20.8152C2.50375 20.6526 2.49 20.4784 2.52001 20.309L2.54601 20.2L3.43801 17.168C2.49497 15.6093 1.99759 13.8218 2.00001 12C2.00001 6.477 6.47701 2 12 2ZM12 4C10.5676 3.99974 9.16147 4.38406 7.92834 5.11281C6.69521 5.84157 5.68036 6.88804 4.98977 8.14294C4.29918 9.39784 3.95817 10.8151 4.00237 12.2468C4.04656 13.6785 4.47433 15.0721 5.24101 16.282C5.43901 16.594 5.52401 16.978 5.45701 17.359L5.41801 17.522L4.97701 19.023L6.47801 18.582C6.91101 18.454 7.36101 18.532 7.71801 18.759C8.76634 19.4228 9.9547 19.8336 11.1892 19.959C12.4236 20.0844 13.6703 19.921 14.8307 19.4816C15.9911 19.0422 17.0334 18.3389 17.8752 17.4273C18.717 16.5157 19.3352 15.4208 19.6809 14.2291C20.0266 13.0374 20.0904 11.7817 19.8673 10.5611C19.6441 9.34053 19.14 8.1886 18.395 7.19638C17.65 6.20415 16.6843 5.39883 15.5744 4.84408C14.4645 4.28933 13.2408 4.00036 12 4ZM9.10201 7.184C9.21272 7.13606 9.33401 7.11776 9.45394 7.13091C9.57387 7.14406 9.68831 7.1882 9.78601 7.259C10.29 7.627 10.69 8.121 11.034 8.603L11.361 9.077L11.514 9.302C11.6023 9.43108 11.6456 9.58563 11.6373 9.74179C11.629 9.89795 11.5695 10.047 11.468 10.166L11.393 10.242L10.469 10.928C10.4245 10.9602 10.3932 11.0074 10.3809 11.0609C10.3686 11.1144 10.3761 11.1706 10.402 11.219C10.612 11.599 10.983 12.166 11.409 12.592C11.836 13.018 12.429 13.414 12.835 13.647C12.923 13.697 13.029 13.681 13.101 13.616L13.139 13.571L13.74 12.656C13.8503 12.509 14.0133 12.4105 14.1947 12.381C14.3761 12.3516 14.5618 12.3935 14.713 12.498L15.256 12.877C15.796 13.262 16.315 13.676 16.726 14.201C16.8024 14.2995 16.851 14.4167 16.8667 14.5403C16.8823 14.664 16.8645 14.7896 16.815 14.904C16.419 15.828 15.416 16.615 14.374 16.577L14.215 16.567L14.024 16.549C13.988 16.5447 13.952 16.5401 13.916 16.535L13.678 16.495C12.754 16.321 11.273 15.797 9.73801 14.263C8.20401 12.728 7.68001 11.247 7.50601 10.323L7.46601 10.085L7.44101 9.877L7.42801 9.702C7.42643 9.67701 7.42509 9.65201 7.42401 9.627C7.38601 8.583 8.17701 7.58 9.10201 7.184Z" fill="white"/>
</g>
</svg>
