<?xml version="1.0" standalone="no"?>
<!DOCTYPE svg PUBLIC "-//W3C//DTD SVG 20010904//EN"
 "http://www.w3.org/TR/2001/REC-SVG-20010904/DTD/svg10.dtd">
<svg version="1.0" xmlns="http://www.w3.org/2000/svg"
 width="880.000000pt" height="880.000000pt" viewBox="0 0 880.000000 880.000000"
 preserveAspectRatio="xMidYMid meet">
<metadata>
Created by potrace 1.14, written by Peter Selinger 2001-2017
</metadata>
<g transform="translate(0.000000,880.000000) scale(0.100000,-0.100000)"
fill="#000000" stroke="none">
<path d="M400 4799 c0 -3996 0 -4001 20 -3996 11 3 20 1 20 -3 0 -5 13 -5 28
0 16 4 36 4 45 -1 9 -6 18 -5 22 0 3 7 15 7 30 1 15 -6 27 -6 30 0 4 7 13 6
25 0 12 -7 27 -7 44 0 15 5 26 6 26 0 0 -5 12 -5 30 0 18 5 30 5 30 0 0 -6 10
-6 25 0 16 6 25 6 25 0 0 -6 9 -6 25 0 15 6 25 6 25 0 0 -5 12 -5 30 0 19 5
30 5 30 -1 0 -6 4 -7 10 -4 15 9 91 12 96 3 3 -4 16 -3 29 2 15 6 27 6 30 0 3
-6 15 -6 30 0 15 6 27 6 30 0 4 -7 13 -6 25 0 12 6 21 7 25 0 3 -6 15 -6 30 0
14 5 27 5 30 0 3 -5 18 -5 35 0 17 5 32 5 35 0 3 -5 16 -5 30 0 15 6 27 6 30
0 4 -7 13 -6 25 0 12 6 21 7 25 0 3 -6 15 -6 30 0 15 6 27 6 30 0 3 -6 15 -6
29 0 13 5 27 6 30 3 9 -9 58 -10 84 -1 12 4 22 3 22 -2 0 -5 12 -5 30 0 18 5
30 5 30 0 0 -6 10 -6 25 0 16 6 25 6 25 0 0 -6 9 -6 25 0 15 6 25 6 25 0 0 -5
12 -5 30 0 19 5 30 5 30 -1 0 -6 4 -7 10 -4 15 9 91 12 96 3 3 -4 16 -3 29 2
15 6 25 6 25 0 0 -5 12 -5 28 -1 15 5 37 4 50 0 12 -5 22 -4 22 1 0 5 13 5 30
0 19 -5 30 -5 30 1 0 6 5 7 11 3 14 -8 198 -8 206 0 3 3 14 1 24 -4 11 -7 20
-7 24 0 3 6 15 6 30 0 15 -6 27 -6 30 0 4 7 13 6 25 0 12 -6 21 -7 25 0 3 6
15 6 30 0 15 -6 27 -6 30 0 4 7 13 7 24 0 10 -5 21 -7 24 -4 9 9 78 10 83 2 3
-4 16 -3 29 2 15 6 27 6 30 0 3 -6 15 -6 30 0 14 5 25 6 25 2 0 -8 169 -6 178
2 2 3 13 1 23 -4 11 -7 20 -7 24 0 3 6 15 6 30 0 15 -6 27 -6 30 0 4 6 14 6
28 -1 15 -9 22 -9 25 -1 2 7 11 8 28 2 14 -6 24 -6 24 0 0 5 12 5 30 0 18 -5
30 -5 30 0 0 6 10 6 25 0 15 -6 26 -6 30 0 4 7 13 6 25 0 12 -6 21 -7 25 0 4
6 15 6 30 0 14 -5 25 -6 25 -2 0 9 53 8 67 -1 5 -3 15 -2 23 3 7 4 24 4 36 0
14 -6 26 -5 29 0 4 7 13 6 25 0 12 -6 21 -7 25 0 4 6 15 6 30 0 15 -6 25 -6
25 0 0 5 12 5 30 0 16 -5 30 -6 30 -2 0 8 68 7 76 -1 3 -3 17 -2 30 3 14 6 26
6 29 0 4 -7 13 -6 25 0 12 6 21 7 25 0 3 -6 15 -6 30 0 15 6 27 6 30 0 3 -6
15 -6 29 0 13 5 27 6 30 3 9 -9 58 -10 83 -1 13 4 23 3 23 -2 0 -5 12 -5 30 0
18 5 30 5 30 0 0 -6 10 -6 25 0 16 6 25 6 25 0 0 -6 9 -6 25 0 15 6 25 6 25 0
0 -5 12 -5 30 0 19 5 30 5 30 -1 0 -6 4 -7 10 -4 15 9 91 12 96 3 3 -4 16 -3
29 2 15 6 25 6 25 0 0 -5 12 -5 28 -1 15 5 37 4 50 0 12 -5 22 -4 22 1 0 5 13
5 30 0 19 -5 30 -5 30 1 0 6 5 7 11 3 14 -8 198 -8 206 0 3 3 14 1 24 -4 11
-7 20 -7 24 0 3 6 15 6 30 0 15 -6 27 -6 30 1 4 5 13 6 22 0 9 -5 29 -5 45 -1
15 5 30 5 33 0 3 -5 16 -5 30 0 15 6 25 6 25 0 0 -5 12 -5 28 -1 15 5 37 4 50
0 12 -5 22 -4 22 1 0 5 13 5 30 0 19 -5 30 -5 30 1 0 6 5 7 11 3 14 -8 198 -8
206 0 3 3 14 1 24 -4 11 -7 20 -7 24 0 3 6 15 6 30 0 15 -6 27 -6 30 0 4 6 14
6 28 -1 15 -9 22 -9 25 -1 2 7 11 8 28 2 14 -6 24 -6 24 0 0 5 12 5 30 0 18
-5 30 -5 30 0 0 6 10 6 25 0 15 -6 26 -6 30 0 4 7 13 6 25 0 12 -6 21 -7 25 0
4 6 15 6 30 0 14 -5 25 -6 25 -2 0 9 53 8 67 -1 5 -3 15 -2 23 3 7 4 24 4 36
0 14 -6 26 -5 29 0 4 7 13 6 25 0 12 -6 21 -7 25 0 4 6 15 6 30 0 15 -6 25 -6
25 0 0 5 12 5 30 0 16 -5 30 -6 30 -2 0 8 68 7 76 -1 3 -3 17 -2 30 3 14 6 26
6 29 0 4 -7 13 -6 25 0 12 6 21 7 25 0 3 -6 15 -6 30 0 15 6 27 6 30 0 3 -6
15 -6 29 0 13 5 27 6 30 3 9 -9 58 -10 84 -1 12 4 22 3 22 -2 0 -5 12 -5 30 0
18 5 30 5 30 0 0 -6 10 -6 25 0 16 6 25 6 25 0 0 -6 9 -6 25 0 15 6 25 6 25 0
0 -5 12 -5 30 0 19 5 30 5 30 -1 0 -6 4 -7 10 -4 15 9 91 12 96 3 3 -4 16 -3
29 2 15 6 25 6 25 0 0 -5 12 -5 28 -1 15 5 37 4 50 0 12 -5 22 -4 22 1 0 5 13
5 30 0 19 -5 30 -5 30 1 0 6 5 7 11 3 14 -8 198 -8 206 0 3 3 14 1 24 -4 11
-7 20 -7 24 0 3 6 15 6 30 0 15 -6 27 -6 30 0 4 7 13 6 25 0 12 -6 21 -7 25 0
3 6 15 6 30 0 15 -6 27 -6 30 0 4 7 13 7 24 0 10 -5 21 -7 24 -4 9 9 78 10 83
2 3 -4 16 -3 29 2 15 6 27 6 30 0 3 -6 15 -6 30 0 14 5 25 6 25 2 0 -8 169 -6
178 2 2 3 13 1 23 -4 11 -7 20 -7 24 0 3 6 15 6 30 0 15 -6 27 -6 30 1 4 5 11
7 16 3 15 -9 69 -11 69 -3 0 4 9 5 20 2 20 -5 20 0 20 3996 l0 4001 -4000 0
-4000 0 0 -4001z"/>
</g>
</svg>
